<?xml version="1.0" encoding="UTF-8"?><svg id="a" xmlns="http://www.w3.org/2000/svg" viewBox="0 0 491.71 491.71"><circle cx="245.86" cy="245.86" r="205.55" transform="translate(-101.84 245.86) rotate(-45)" fill="#f8b618"/><path d="M245.86,491.71C110.29,491.71,0,381.42,0,245.86S110.29,0,245.86,0s245.86,110.29,245.86,245.86-110.29,245.86-245.86,245.86Zm0-451.41c-113.34,0-205.55,92.21-205.55,205.55s92.21,205.55,205.55,205.55,205.55-92.21,205.55-205.55S359.2,40.3,245.86,40.3Z" fill="#ffdf57"/><path d="M14.99,245.86C14.99,112.8,121.24,4.1,253.35,.12c-2.49-.08-4.99-.12-7.5-.12C110.29,0,0,110.29,0,245.86s110.29,245.86,245.86,245.86c2.51,0,5.01-.05,7.5-.12C121.24,487.61,14.99,378.91,14.99,245.86Z" fill="#ffefaf"/><path d="M245.86,40.3c-2.2,0-4.38,.05-6.56,.12,110.32,3.48,198.99,94.29,198.99,205.44s-88.67,201.96-198.99,205.44c2.18,.07,4.37,.12,6.56,.12,113.34,0,205.55-92.21,205.55-205.55S359.2,40.3,245.86,40.3Z" fill="#df9b26"/><path d="M228.59,212.67c14.96-.25,32.66-.4,47.55,0-2.25-26.1-9.08-55.71,4.88-75.74,9.06-13.01,36.79-11.05,45.11,1.22,10.34,15.25,8.62,35.05,10.97,57.42,1.4,13.28,.98,30.44,1.22,45.2,.47,29.63,1.05,92.48-13.41,105.06-5.71,4.97-12.37,11.83-25.6,9.77-10.08-3.02-15.85-6.41-20.73-14.66-11.31-19.12-3.3-50.31-2.44-73.3-16.2,1.93-32.46,.76-48.77,0v2.44c2.21,9.95,.97,13.52,2.44,20.77,4.84,23.91,.26,55.18-17.07,61.08-3.73,3.03-8.99,3.7-15.85,3.66-7.81-1.57-14.89-6.31-19.51-13.44-6.84-10.56-8.66-23.33-10.19-39.28-3.01-31.29-6.49-79.96-1.2-112.75,3.53-21.88,.26-49.16,18.6-58.18,10.96-6.12,24.5-5.15,34.19-2.4,9.72,7.26,9.25,11.22,11.03,22.03,3.09,18.81-.68,43.72-1.22,61.08Z" fill="#df9b26" fill-rule="evenodd"/><path d="M216.27,210.11c14.96-.25,32.66-.4,47.55,0-2.25-26.1-9.08-55.71,4.88-75.74,9.06-13.01,36.79-11.05,45.11,1.22,10.34,15.25,8.62,35.05,10.97,57.42,1.4,13.28,.98,30.44,1.22,45.2,.47,29.63,1.05,92.48-13.41,105.06-5.71,4.97-12.37,11.83-25.6,9.77-10.08-3.02-15.85-6.41-20.73-14.66-11.31-19.12-3.3-50.31-2.44-73.3-16.2,1.93-32.46,.76-48.77,0v2.44c2.21,9.95,.97,13.52,2.44,20.77,4.84,23.91,.26,55.18-17.07,61.08-3.73,3.03-8.99,3.7-15.85,3.66-7.81-1.57-14.89-6.31-19.51-13.44-6.84-10.56-8.66-23.33-10.19-39.28-3.01-31.29-6.49-79.96-1.2-112.75,3.53-21.88,.26-49.16,18.6-58.18,10.96-6.12,24.5-5.15,34.19-2.4,9.72,7.26,9.25,11.22,11.03,22.03,3.09,18.81-.68,43.72-1.22,61.08Z" fill="#fedf57" fill-rule="evenodd"/></svg>