<?xml version="1.0" encoding="UTF-8"?>
<svg xmlns="http://www.w3.org/2000/svg" id="Layer_1" data-name="Layer 1" viewBox="0 0 24 24" width="512" height="512"><path d="m10,12c0-1.105.895-2,2-2s2,.895,2,2-.895,2-2,2-2-.895-2-2Zm3.94,4.413c-.666-.218-1.41-.413-1.94-.413-.526,0-1.264.192-1.927.408-.911.297-1.454,1.229-1.277,2.171l1.204,5.421h4.072l1.148-5.433c.167-.937-.375-1.859-1.28-2.154ZM12,0C5.383,0,0,5.383,0,12c0,5.13,3.241,9.505,7.778,11.218l-.841-3.783c-2.374-1.622-3.937-4.349-3.937-7.435C3,7.037,7.038,3,12,3s9,4.037,9,9c0,3.077-1.554,5.796-3.917,7.42l-.797,3.775c4.504-1.73,7.714-6.089,7.714-11.195C24,5.383,18.617,0,12,0Zm7,12c0-3.859-3.14-7-7-7s-7,3.141-7,7c0,1.906.768,3.635,2.008,4.898.35-.977,1.079-1.777,2.044-2.218-.647-.711-1.052-1.646-1.052-2.68,0-2.206,1.794-4,4-4s4,1.794,4,4c0,1.034-.405,1.969-1.051,2.679.967.439,1.7,1.239,2.056,2.205,1.232-1.262,1.995-2.985,1.995-4.884Z"/></svg>
